<?xml version="1.0" standalone="no"?>
<!DOCTYPE svg PUBLIC "-//W3C//DTD SVG 20010904//EN"
 "http://www.w3.org/TR/2001/REC-SVG-20010904/DTD/svg10.dtd">
<svg version="1.0" xmlns="http://www.w3.org/2000/svg"
 width="512.000000pt" height="512.000000pt" viewBox="0 0 512.000000 512.000000"
 preserveAspectRatio="xMidYMid meet">

<g transform="translate(0.000000,512.000000) scale(0.100000,-0.100000)"
fill="white" stroke="none">
<path d="M2000 4888 c-42 -26 -61 -45 -82 -87 l-28 -53 0 -684 c0 -552 3 -691
13 -717 20 -47 64 -95 111 -120 40 -22 49 -22 490 -25 l450 -3 305 -218 c169
-120 316 -223 328 -229 34 -18 52 -14 84 17 l29 29 0 201 0 201 153 0 c184 0
236 12 289 67 78 82 73 31 76 762 2 453 -1 670 -8 708 -14 67 -60 129 -119
160 l-44 23 -997 0 -996 0 -54 -32z m2036 -149 c18 -20 19 -48 22 -658 1 -350
0 -646 -3 -659 -3 -12 -14 -31 -25 -42 -19 -19 -34 -20 -229 -20 -275 0 -254
17 -261 -208 l-5 -170 -265 189 -265 188 -451 1 c-441 0 -452 0 -478 21 l-26
20 0 661 c0 601 2 663 17 680 15 17 59 18 983 18 l967 0 19 -21z"/>
<path d="M2294 4257 c-35 -31 -37 -77 -4 -112 l23 -25 738 0 c687 0 738 1 758
18 11 9 24 31 27 49 5 27 1 37 -24 63 l-30 30 -731 0 -730 0 -27 -23z"/>
<path d="M2297 3898 c-27 -22 -39 -66 -25 -96 25 -52 29 -52 500 -50 423 3
438 4 457 23 31 32 31 85 1 115 -19 19 -33 20 -468 20 -343 0 -452 -3 -465
-12z"/>
<path d="M3321 3884 c-35 -45 -26 -95 20 -119 34 -18 125 -19 159 -2 38 19 55
61 40 98 -17 41 -37 49 -124 49 -69 0 -76 -2 -95 -26z"/>
<path d="M1184 4516 c-60 -19 -101 -54 -129 -110 l-25 -50 0 -616 c0 -446 3
-626 12 -651 17 -51 48 -88 98 -117 43 -26 53 -27 203 -30 l157 -4 0 -177 c0
-146 3 -181 16 -199 21 -30 58 -44 87 -33 12 5 149 99 304 210 l282 201 391 0
392 0 29 29 c16 16 29 37 29 46 0 24 -27 72 -45 79 -9 3 -204 6 -433 6 l-417
-1 -235 -168 -235 -168 -5 149 c-7 200 8 188 -239 188 -153 0 -191 3 -209 16
l-22 15 0 603 c0 549 1 605 17 617 12 11 73 15 272 17 245 3 257 4 278 24 42
39 27 108 -28 127 -46 16 -492 14 -545 -3z"/>
<path d="M591 2974 c-178 -48 -324 -197 -366 -375 -75 -321 167 -629 495 -629
147 0 254 44 361 150 104 102 151 216 150 363 0 234 -155 432 -382 492 -68 19
-188 18 -258 -1z m280 -177 c265 -129 269 -496 7 -634 -48 -25 -63 -28 -153
-28 -89 0 -106 3 -156 28 -69 33 -132 99 -167 175 -23 48 -27 71 -27 142 0 71
4 94 26 140 45 95 114 158 217 197 60 22 188 12 253 -20z"/>
<path d="M4267 2975 c-128 -35 -265 -143 -320 -250 -107 -212 -68 -459 97
-613 107 -99 214 -142 356 -142 385 1 629 412 448 753 -63 118 -191 217 -323
252 -71 18 -192 18 -258 0z m291 -185 c74 -39 125 -92 161 -169 22 -47 26 -70
26 -141 0 -71 -4 -94 -27 -142 -35 -76 -98 -142 -167 -175 -49 -25 -67 -28
-151 -28 -82 0 -103 4 -151 26 -244 115 -274 453 -54 605 73 50 125 64 220 61
68 -3 89 -8 143 -37z"/>
<path d="M540 1885 c-213 -40 -391 -197 -467 -412 l-28 -78 -3 -572 -3 -573
25 -25 c35 -35 87 -34 115 1 21 26 21 36 21 563 0 572 3 609 51 703 28 54 120
151 173 182 96 55 209 74 314 52 116 -24 180 -65 291 -185 53 -58 114 -125
136 -149 l40 -43 248 -59 c135 -33 260 -66 276 -75 16 -8 39 -28 51 -45 23
-33 38 -104 24 -113 -5 -3 -128 0 -274 7 l-265 12 -174 94 c-185 99 -217 108
-254 71 l-22 -22 0 -490 0 -491 24 -19 c32 -26 82 -25 109 4 22 23 22 26 22
426 0 221 4 401 8 399 4 -1 61 -32 126 -67 l119 -63 296 -14 c334 -16 353 -14
410 51 92 106 20 328 -131 406 -21 11 -143 44 -270 74 l-233 56 -80 87 c-153
168 -201 209 -288 251 -133 63 -256 81 -387 56z"/>
<path d="M4385 1890 c-187 -28 -272 -84 -480 -312 l-80 -88 -232 -55 c-128
-30 -250 -63 -271 -74 -89 -45 -159 -147 -169 -247 -8 -73 3 -119 38 -159 57
-65 76 -67 411 -51 l296 14 118 63 c66 35 122 66 126 67 5 2 8 -178 8 -400 l0
-405 23 -21 c45 -42 117 -20 132 40 3 13 4 233 3 490 -3 459 -3 468 -24 488
-38 38 -71 29 -255 -71 l-174 -94 -265 -11 c-146 -7 -269 -10 -274 -7 -14 9 1
80 24 113 12 17 34 37 50 45 16 8 140 42 277 74 l248 60 40 43 c223 244 235
255 294 287 271 144 596 -6 660 -307 7 -36 11 -228 11 -586 0 -524 0 -534 21
-560 28 -35 80 -36 115 -1 l25 25 -3 573 -3 572 -28 78 c-77 218 -255 373
-472 412 -87 16 -115 16 -190 5z"/>
<path d="M1269 811 c-31 -32 -35 -50 -17 -84 25 -48 -5 -46 871 -47 l828 0 24
25 c16 15 25 36 25 55 0 19 -9 40 -25 55 l-24 25 -826 0 -827 0 -29 -29z"/>
<path d="M3095 815 c-16 -15 -25 -36 -25 -55 0 -19 9 -40 25 -55 21 -21 33
-25 89 -25 80 0 119 26 119 80 0 54 -39 80 -119 80 -56 0 -68 -4 -89 -25z"/>
<path d="M3434 817 c-20 -17 -27 -33 -27 -57 0 -24 7 -40 27 -57 26 -22 33
-23 211 -23 l183 0 26 31 c34 40 33 64 -3 100 l-29 29 -181 0 c-174 0 -181 -1
-207 -23z"/>
</g>
</svg>
